<svg width="61" height="54" viewBox="0 0 61 54" fill="none" xmlns="http://www.w3.org/2000/svg">
<path d="M31 33.6669H8.5L3.5 43.6669C1.72984 47.7129 4.26296 52.34 8.62527 53.0288L8.95737 53.0812C9.31857 53.1382 9.68368 53.1669 10.0494 53.1669H20L31 33.6669Z" fill="#879CF1"/>
<path d="M43 53.1669L20.5 13.6669C22.1667 10.5003 26 3.66693 28 1.66693C30 -0.333075 34.1667 0.833592 36 1.66693C42.6667 12.1669 56.7 35.0669 59.5 42.6669C62.3 50.2669 58.3333 52.8336 56 53.1669H43Z" fill="#FBFBFF"/>
<path d="M44 14.1669C49.6 28.9669 45.8333 46.5626 43.5 53.0626C44.5 53.0626 48.1 52.5626 52.5 52.5626C64 53.0626 57.5 37.1669 44 14.1669Z" fill="#828282" fill-opacity="0.2"/>
<path d="M56 35.5626C46.4 22.3626 27.8333 15.5626 20.5 13.5626C21.1667 12.2293 24.5 5.45841 28.5 1.06262C37.5 -4.43738 42.5 12.0626 56 35.5626Z" fill="#828282" fill-opacity="0.2"/>
</svg>
