<svg width="333" height="339" viewBox="0 0 333 339" fill="none" xmlns="http://www.w3.org/2000/svg">
<g filter="url(#filter0_i)">
<path d="M236.813 324.896C213.259 334.593 187.919 339.128 162.594 338.178C137.268 337.229 112.581 330.819 90.2859 319.403C67.9919 307.988 48.6379 291.848 33.6016 272.131C18.5653 252.414 8.21552 229.604 3.28832 205.324C-1.63888 181.045 -1.02238 155.891 5.09382 131.652C11.2101 107.413 22.6759 84.6839 38.6759 65.0817C54.6759 45.4796 74.8169 29.4855 97.6669 18.237C120.517 6.9886 145.514 0.762 170.881 0L172.68 169.111L236.813 324.896Z" fill="url(#paint0_linear)"/>
</g>
<path opacity="0.75" d="M73.6039 158.172V161.46H66.7399V165.012H71.8759V168.204H66.7399V175.02H62.6359V158.172H73.6039ZM84.3529 175.02L80.8489 168.66H79.8649V175.02H75.7609V158.172H82.6489C83.9769 158.172 85.1049 158.404 86.0329 158.868C86.9769 159.332 87.6809 159.972 88.1449 160.788C88.6089 161.588 88.8409 162.484 88.8409 163.476C88.8409 164.596 88.5209 165.596 87.8809 166.476C87.2569 167.356 86.3289 167.98 85.0969 168.348L88.9849 175.02H84.3529ZM79.8649 165.756H82.4089C83.1609 165.756 83.7209 165.572 84.0889 165.204C84.4729 164.836 84.6649 164.316 84.6649 163.644C84.6649 163.004 84.4729 162.5 84.0889 162.132C83.7209 161.764 83.1609 161.58 82.4089 161.58H79.8649V165.756ZM99.3849 175.188C97.8009 175.188 96.3449 174.82 95.0169 174.084C93.7049 173.348 92.6569 172.324 91.8729 171.012C91.1049 169.684 90.7209 168.196 90.7209 166.548C90.7209 164.9 91.1049 163.42 91.8729 162.108C92.6569 160.796 93.7049 159.772 95.0169 159.036C96.3449 158.3 97.8009 157.932 99.3849 157.932C100.969 157.932 102.417 158.3 103.729 159.036C105.057 159.772 106.097 160.796 106.849 162.108C107.617 163.42 108.001 164.9 108.001 166.548C108.001 168.196 107.617 169.684 106.849 171.012C106.081 172.324 105.041 173.348 103.729 174.084C102.417 174.82 100.969 175.188 99.3849 175.188ZM99.3849 171.444C100.729 171.444 101.801 170.996 102.601 170.1C103.417 169.204 103.825 168.02 103.825 166.548C103.825 165.06 103.417 163.876 102.601 162.996C101.801 162.1 100.729 161.652 99.3849 161.652C98.0249 161.652 96.9369 162.092 96.1209 162.972C95.3209 163.852 94.9209 165.044 94.9209 166.548C94.9209 168.036 95.3209 169.228 96.1209 170.124C96.9369 171.004 98.0249 171.444 99.3849 171.444ZM125.356 175.02H121.252L114.388 164.628V175.02H110.284V158.172H114.388L121.252 168.612V158.172H125.356V175.02ZM140.451 158.172V161.46H135.987V175.02H131.883V161.46H127.419V158.172H140.451Z" fill="#FBFBFF"/>
<g filter="url(#filter1_i)">
<path d="M185.786 13.0299C219.599 13.0168 252.383 25.1797 278.611 47.4683C304.839 69.757 322.907 100.808 329.768 135.387C336.63 169.966 331.866 205.957 316.279 237.295C300.693 268.632 275.237 293.398 244.203 307.417L185.846 166.531L185.786 13.0299Z" fill="url(#paint1_linear)"/>
</g>
<path opacity="0.75" d="M238.504 166.38C239.48 166.588 240.264 167.076 240.856 167.844C241.448 168.596 241.744 169.46 241.744 170.436C241.744 171.844 241.248 172.964 240.256 173.796C239.28 174.612 237.912 175.02 236.152 175.02H228.304V158.172H235.888C237.6 158.172 238.936 158.564 239.896 159.348C240.872 160.132 241.36 161.196 241.36 162.54C241.36 163.532 241.096 164.356 240.568 165.012C240.056 165.668 239.368 166.124 238.504 166.38ZM232.408 164.988H235.096C235.768 164.988 236.28 164.844 236.632 164.556C237 164.252 237.184 163.812 237.184 163.236C237.184 162.66 237 162.22 236.632 161.916C236.28 161.612 235.768 161.46 235.096 161.46H232.408V164.988ZM235.432 171.708C236.12 171.708 236.648 171.556 237.016 171.252C237.4 170.932 237.592 170.476 237.592 169.884C237.592 169.292 237.392 168.828 236.992 168.492C236.608 168.156 236.072 167.988 235.384 167.988H232.408V171.708H235.432ZM254.612 172.044H248.324L247.316 175.02H243.02L249.116 158.172H253.868L259.964 175.02H255.62L254.612 172.044ZM253.556 168.876L251.468 162.708L249.404 168.876H253.556ZM261.124 166.572C261.124 164.908 261.484 163.428 262.204 162.132C262.924 160.82 263.924 159.804 265.204 159.084C266.5 158.348 267.964 157.98 269.596 157.98C271.596 157.98 273.308 158.508 274.732 159.564C276.156 160.62 277.108 162.06 277.588 163.884H273.076C272.74 163.18 272.26 162.644 271.636 162.276C271.028 161.908 270.332 161.724 269.548 161.724C268.284 161.724 267.26 162.164 266.476 163.044C265.692 163.924 265.3 165.1 265.3 166.572C265.3 168.044 265.692 169.22 266.476 170.1C267.26 170.98 268.284 171.42 269.548 171.42C270.332 171.42 271.028 171.236 271.636 170.868C272.26 170.5 272.74 169.964 273.076 169.26H277.588C277.108 171.084 276.156 172.524 274.732 173.58C273.308 174.62 271.596 175.14 269.596 175.14C267.964 175.14 266.5 174.78 265.204 174.06C263.924 173.324 262.924 172.308 262.204 171.012C261.484 169.716 261.124 168.236 261.124 166.572ZM289.869 175.02L284.205 167.58V175.02H280.101V158.172H284.205V165.564L289.821 158.172H294.645L288.117 166.428L294.885 175.02H289.869Z" fill="#FBFBFF"/>
<defs>
<filter id="filter0_i" x="0" y="0" width="236.813" height="342.302" filterUnits="userSpaceOnUse" color-interpolation-filters="sRGB">
<feFlood flood-opacity="0" result="BackgroundImageFix"/>
<feBlend mode="normal" in="SourceGraphic" in2="BackgroundImageFix" result="shape"/>
<feColorMatrix in="SourceAlpha" type="matrix" values="0 0 0 0 0 0 0 0 0 0 0 0 0 0 0 0 0 0 127 0" result="hardAlpha"/>
<feOffset dy="4"/>
<feGaussianBlur stdDeviation="2"/>
<feComposite in2="hardAlpha" operator="arithmetic" k2="-1" k3="1"/>
<feColorMatrix type="matrix" values="0 0 0 0 1 0 0 0 0 1 0 0 0 0 1 0 0 0 0.45 0"/>
<feBlend mode="normal" in2="shape" result="effect1_innerShadow"/>
</filter>
<filter id="filter1_i" x="185.786" y="13.0299" width="147.041" height="298.387" filterUnits="userSpaceOnUse" color-interpolation-filters="sRGB">
<feFlood flood-opacity="0" result="BackgroundImageFix"/>
<feBlend mode="normal" in="SourceGraphic" in2="BackgroundImageFix" result="shape"/>
<feColorMatrix in="SourceAlpha" type="matrix" values="0 0 0 0 0 0 0 0 0 0 0 0 0 0 0 0 0 0 127 0" result="hardAlpha"/>
<feOffset dy="4"/>
<feGaussianBlur stdDeviation="2"/>
<feComposite in2="hardAlpha" operator="arithmetic" k2="-1" k3="1"/>
<feColorMatrix type="matrix" values="0 0 0 0 1 0 0 0 0 1 0 0 0 0 1 0 0 0 0.45 0"/>
<feBlend mode="normal" in2="shape" result="effect1_innerShadow"/>
</filter>
<linearGradient id="paint0_linear" x1="82.1479" y1="-4.98021" x2="82.1479" y2="334.02" gradientUnits="userSpaceOnUse">
<stop stop-color="#6AB4DD"/>
<stop offset="0.0001" stop-color="#6AB4DD"/>
<stop offset="0.0002" stop-color="#90C9E9"/>
<stop offset="1" stop-color="#257CAD"/>
</linearGradient>
<linearGradient id="paint1_linear" x1="332.827" y1="320.02" x2="332.827" y2="45.0198" gradientUnits="userSpaceOnUse">
<stop stop-color="#183813"/>
<stop offset="1" stop-color="#82BB67"/>
</linearGradient>
</defs>
</svg>
