<svg width="500" height="500" viewBox="0 0 500 500" fill="none" xmlns="http://www.w3.org/2000/svg">
<path d="M228.745 120.414C239.102 105.713 260.898 105.713 271.255 120.414L437.64 356.587C449.775 373.812 437.455 397.561 416.385 397.561H83.6151C62.5447 397.561 50.2251 373.812 62.3602 356.587L228.745 120.414Z" fill="url(#paint0_radial)"/>
<path d="M162.744 378.347L151.837 397.561H424.886C444.482 397.561 457.035 376.705 447.86 359.389L441.809 347.968H214.923C193.331 347.968 173.404 359.569 162.744 378.347Z" fill="url(#paint1_linear)"/>
<path d="M96.7117 249.594H250.483C262.682 271.935 246.513 299.187 221.058 299.187H125.725L96.7117 249.594Z" fill="#4158B1"/>
<path d="M43.3324 337.714L221.39 38.3451C231.464 21.4086 255.982 21.3976 266.071 38.325L277.563 57.6072L77.3693 397.561C46.6546 397.561 27.6313 364.112 43.3324 337.714Z" fill="url(#paint2_linear)"/>
<path d="M456.381 358.29L266.049 37.6291C255.98 20.6659 231.429 20.6548 221.345 37.609L209.865 56.9106L410.058 397.561H434.023C454.177 397.561 466.668 375.622 456.381 358.29Z" fill="url(#paint3_linear)"/>
<defs>
<radialGradient id="paint0_radial" cx="0" cy="0" r="1" gradientUnits="userSpaceOnUse" gradientTransform="translate(260.155 241.463) rotate(92.7026) scale(205.106 250.115)">
<stop offset="0.0416667" stop-color="#2F438E"/>
<stop offset="0.875" stop-color="#171738"/>
</radialGradient>
<linearGradient id="paint1_linear" x1="233.075" y1="372.358" x2="431.054" y2="358.572" gradientUnits="userSpaceOnUse">
<stop stop-color="#4E69D2"/>
<stop offset="1" stop-color="#3B50A3"/>
</linearGradient>
<linearGradient id="paint2_linear" x1="142.65" y1="0.812988" x2="142.65" y2="397.561" gradientUnits="userSpaceOnUse">
<stop stop-color="#4E69D2"/>
<stop offset="1" stop-color="#3B50A3"/>
</linearGradient>
<linearGradient id="paint3_linear" x1="344.777" y1="0" x2="344.777" y2="397.561" gradientUnits="userSpaceOnUse">
<stop stop-color="#3B50A3"/>
<stop offset="1" stop-color="#4E69D2"/>
</linearGradient>
</defs>
</svg>
