<svg width="500" height="442" viewBox="0 0 500 442" fill="none" xmlns="http://www.w3.org/2000/svg">
<path d="M226.158 113.073C238.419 95.6691 264.222 95.6691 276.483 113.073L473.456 392.663C487.821 413.054 473.237 441.169 448.293 441.169H54.3485C29.4046 441.169 14.8202 413.054 29.1862 392.663L226.158 113.073Z" fill="url(#paint0_radial)"/>
<path d="M148.024 418.423L135.112 441.169H458.357C481.555 441.169 496.416 416.479 485.554 395.98L478.391 382.459H209.795C184.234 382.459 160.644 396.193 148.024 418.423Z" fill="url(#paint1_linear)"/>
<path d="M69.8527 266H251.892C266.334 292.449 247.193 324.71 217.058 324.71H104.2L69.8527 266Z" fill="#4158B1"/>
<path d="M6.66044 370.32L217.451 15.917C229.377 -4.13306 258.402 -4.14608 270.346 15.8932L283.951 38.7201L46.9545 441.169C10.5934 441.169 -11.9271 401.571 6.66044 370.32Z" fill="url(#paint2_linear)"/>
<path d="M495.642 394.679L270.32 15.0691C258.4 -5.0125 229.336 -5.02564 217.398 15.0453L203.807 37.8952L440.803 441.169H469.174C493.033 441.169 507.82 415.197 495.642 394.679Z" fill="url(#paint3_linear)"/>
<defs>
<radialGradient id="paint0_radial" cx="0" cy="0" r="1" gradientUnits="userSpaceOnUse" gradientTransform="translate(263.343 256.375) rotate(92.7026) scale(242.812 296.095)">
<stop offset="0.0416667" stop-color="#2F438E"/>
<stop offset="0.875" stop-color="#171738"/>
</radialGradient>
<linearGradient id="paint1_linear" x1="231.284" y1="411.333" x2="465.659" y2="395.012" gradientUnits="userSpaceOnUse">
<stop stop-color="#4E69D2"/>
<stop offset="1" stop-color="#3B50A3"/>
</linearGradient>
<linearGradient id="paint2_linear" x1="124.236" y1="-28.5149" x2="124.236" y2="441.169" gradientUnits="userSpaceOnUse">
<stop stop-color="#4E69D2"/>
<stop offset="1" stop-color="#3B50A3"/>
</linearGradient>
<linearGradient id="paint3_linear" x1="363.521" y1="-29.4775" x2="363.521" y2="441.169" gradientUnits="userSpaceOnUse">
<stop stop-color="#3B50A3"/>
<stop offset="1" stop-color="#4E69D2"/>
</linearGradient>
</defs>
</svg>
